<svg width="51" height="30" viewBox="0 0 51 30" fill="none" xmlns="http://www.w3.org/2000/svg">
<g clip-path="url(#clip0_1_2086)">
<path d="M6.20851 13.394C7.9168 13.394 9.22789 12.8986 10.1418 11.9079C11.0557 10.9172 11.5142 9.51798 11.5142 7.70702V0H9.56051V7.89037C9.56051 9.16415 9.2731 10.1227 8.69506 10.7725C8.11702 11.4222 7.28709 11.7439 6.20851 11.7439C5.12993 11.7439 4.33553 11.4158 3.75749 10.7628C3.17945 10.1098 2.89205 9.15128 2.89205 7.89037V0H0.941561V7.66842C0.941561 9.50189 1.39689 10.9172 2.30432 11.9079C3.21174 12.8986 4.51314 13.394 6.20851 13.394Z" fill="black"/>
<path d="M19.2603 5.49415C19.3701 5.50058 19.4573 5.51666 19.5187 5.53918V3.74109C19.4089 3.69284 19.2119 3.66711 18.9277 3.66711C18.1785 3.66711 17.5327 3.87619 16.9934 4.29113C16.5542 4.62888 16.228 5.0985 15.9988 5.68393V3.85045H14.1742V13.2076H16.0892V8.32799C16.0892 7.38552 16.3184 6.67786 16.7802 6.19859C17.242 5.72253 17.9331 5.4845 18.8534 5.4845C19.0117 5.4845 19.1473 5.4845 19.2603 5.49415Z" fill="black"/>
<path d="M29.8596 11.0652C30.2148 10.3318 30.3924 9.47616 30.3924 8.49509C30.3924 7.51402 30.2245 6.68413 29.8854 5.96361C29.5464 5.24309 29.0684 4.68018 28.4484 4.27489C27.8284 3.87281 27.0953 3.67016 26.246 3.67016C25.3967 3.67016 24.654 3.87281 24.0437 4.27489C23.5916 4.57403 23.2525 4.95681 23.02 5.42644V0H21.105V13.2107H22.9296V11.5251C23.1427 12.0237 23.4689 12.429 23.9048 12.741C24.4958 13.1624 25.2321 13.3747 26.1136 13.3747C26.9952 13.3747 27.7218 13.1721 28.3612 12.77C29.0006 12.3679 29.4979 11.7986 29.8531 11.0652H29.8596ZM27.7057 10.9172C27.2148 11.5058 26.5528 11.7986 25.7164 11.7986C24.8801 11.7986 24.1955 11.5091 23.6981 10.9269C23.2008 10.3446 22.9522 9.55336 22.9522 8.54977C22.9522 7.54619 23.2008 6.7163 23.6981 6.13731C24.1955 5.5551 24.8607 5.26561 25.6971 5.26561C26.5335 5.26561 27.2148 5.54867 27.7057 6.11801C28.1965 6.68735 28.442 7.47864 28.442 8.49509C28.442 9.51154 28.1965 10.3286 27.7057 10.9172Z" fill="black"/>
<path d="M39.9424 12.2745C39.9069 11.9818 39.8875 11.6923 39.8875 11.4124V7.02819C39.8875 5.9281 39.5807 5.09178 38.9672 4.52244C38.3536 3.9531 37.4332 3.67004 36.2029 3.67004C34.9725 3.67004 34.0587 3.9338 33.3482 4.45811C32.6345 4.98563 32.2373 5.68686 32.1502 6.56821H33.9747C34.036 6.11467 34.2524 5.76727 34.627 5.52281C35.0016 5.27835 35.5021 5.15612 36.1286 5.15612C36.7551 5.15612 37.2556 5.3073 37.556 5.60644C37.8563 5.90559 38.0081 6.35592 38.0081 6.95421V7.38845L35.3374 7.81626C34.2201 7.98674 33.3644 8.31484 32.7669 8.79733C32.1695 9.27982 31.8724 9.93923 31.8724 10.7691C31.8724 11.599 32.1534 12.2166 32.7185 12.6862C33.2836 13.1558 34.0457 13.3939 35.0016 13.3939C35.8121 13.3939 36.5 13.2202 37.0651 12.8696C37.5269 12.5865 37.866 12.1941 38.0985 11.7116C38.1017 11.9882 38.1114 12.2295 38.1243 12.4385C38.1437 12.7216 38.1824 12.9757 38.2438 13.2105H40.1039C40.0296 12.8792 39.9747 12.5672 39.9392 12.2745H39.9424ZM37.2782 11.3578C36.7939 11.7116 36.1835 11.8885 35.444 11.8885C34.8918 11.8885 34.472 11.7824 34.1814 11.5668C33.894 11.3513 33.7486 11.0329 33.7486 10.6051C33.7486 10.1773 33.9036 9.82665 34.2169 9.59505C34.5301 9.36345 34.9984 9.19619 35.6249 9.09969L38.0016 8.72656V10.0164C38.0016 10.5536 37.7594 11.0007 37.275 11.3545L37.2782 11.3578Z" fill="black"/>
<path d="M50.1345 4.51292C49.5565 3.95001 48.7653 3.67017 47.7578 3.67017C46.9117 3.67017 46.1658 3.87281 45.5296 4.27489C44.9806 4.62229 44.564 5.08226 44.2573 5.64517V3.8503H42.4327V13.2074H44.3477V8.16057C44.3477 7.57193 44.4672 7.06692 44.7061 6.63911C44.9451 6.2113 45.2777 5.87355 45.7008 5.62909C46.1238 5.38463 46.6114 5.26239 47.1668 5.26239C47.8062 5.26239 48.2874 5.42001 48.6136 5.73845C48.9397 6.0569 49.1012 6.53939 49.1012 7.18915V13.2074H51V6.74847C51 5.81887 50.7126 5.07261 50.1345 4.50971V4.51292Z" fill="black"/>
<path d="M3.77503 16.8873L1.87622 17.6013V19.7468H7.63065e-06V21.2683H1.87945V26.2766C1.87945 27.2673 2.13456 28.0168 2.64479 28.525C3.15501 29.0332 3.95587 29.2873 5.04737 29.2873C5.35415 29.2873 5.63187 29.268 5.87729 29.2326C6.12272 29.1973 6.31325 29.1458 6.44888 29.0847V27.5439C6.32616 27.5922 6.17762 27.6372 6.00647 27.6726C5.83531 27.708 5.63833 27.7273 5.41551 27.7273C4.83747 27.7273 4.42089 27.6115 4.16255 27.3799C3.90421 27.1483 3.77503 26.788 3.77503 26.2959V21.2683H6.44565V19.7468H3.77503V16.884V16.8873Z" fill="black"/>
<path d="M14.4973 20.1423C13.8288 19.7563 13.0377 19.5633 12.1302 19.5633C11.2228 19.5633 10.367 19.7659 9.64369 20.168C8.9171 20.5701 8.35843 21.1362 7.958 21.8664C7.55757 22.5933 7.36059 23.4425 7.36059 24.4075C7.36059 25.3725 7.56403 26.2056 7.96769 26.939C8.37135 27.6724 8.93647 28.2482 9.65337 28.6631C10.3703 29.078 11.2034 29.2871 12.1496 29.2871C13.1701 29.2871 14.0452 29.0362 14.775 28.5344C15.5048 28.0326 16.0247 27.3411 16.3315 26.4597H14.5264C14.3294 26.9004 14.029 27.2349 13.6222 27.4601C13.2185 27.6852 12.7373 27.801 12.1851 27.801C11.2777 27.801 10.5673 27.5019 10.057 26.9036C9.64691 26.4211 9.40472 25.781 9.32399 24.9961H16.5317C16.5576 24.861 16.5705 24.7292 16.5769 24.6005C16.5834 24.4718 16.5866 24.3335 16.5866 24.1888C16.5866 23.2463 16.4058 22.4325 16.0441 21.7474C15.6824 21.0622 15.1658 20.5283 14.4973 20.1423ZM10.057 21.9404C10.5673 21.3485 11.2583 21.0494 12.1302 21.0494C12.9408 21.0494 13.5737 21.3131 14.029 21.8374C14.394 22.2588 14.6071 22.8346 14.6814 23.5615H9.35951C9.46285 22.9053 9.69535 22.3617 10.0603 21.9371L10.057 21.9404Z" fill="black"/>
<path d="M24.1757 27.2447C23.7526 27.5696 23.2392 27.7304 22.6385 27.7304C22.0863 27.7304 21.6084 27.5921 21.2015 27.3187C20.7946 27.0453 20.4846 26.6561 20.2618 26.1543C20.0422 25.6525 19.9292 25.0703 19.9292 24.4109C19.9292 23.7515 20.039 23.1564 20.2618 22.6675C20.4814 22.1785 20.7946 21.799 21.2015 21.5288C21.6052 21.2586 22.0799 21.1267 22.6192 21.1267C23.2456 21.1267 23.7623 21.2908 24.1757 21.6221C24.5858 21.9534 24.8538 22.3941 24.9765 22.9441H26.7817C26.6719 22.259 26.4265 21.6671 26.0454 21.1653C25.6644 20.6635 25.18 20.2711 24.589 19.9912C23.9981 19.7082 23.3296 19.5699 22.5804 19.5699C21.6956 19.5699 20.9044 19.779 20.2037 20.1939C19.5029 20.6088 18.9539 21.1814 18.5535 21.9084C18.1531 22.6353 17.9561 23.4716 17.9561 24.4141C17.9561 25.3566 18.1563 26.1929 18.5535 26.9263C18.9539 27.6597 19.5029 28.2387 20.2037 28.66C20.9044 29.0814 21.702 29.2937 22.5998 29.2937C23.3231 29.2937 23.9819 29.1522 24.5696 28.8723C25.1606 28.5893 25.6482 28.2001 26.0357 27.6983C26.4232 27.1965 26.6784 26.611 26.8011 25.9356H24.9959C24.8732 26.4856 24.5987 26.9231 24.1757 27.2479V27.2447Z" fill="black"/>
<path d="M34.0922 19.5634C33.2461 19.5634 32.5002 19.7661 31.864 20.1681C31.3732 20.4801 30.9792 20.879 30.6853 21.3647V15.8932H28.7704V29.1039H30.6853V24.057C30.6853 23.4684 30.8048 22.9634 31.0438 22.5356C31.2827 22.1077 31.6154 21.77 32.0384 21.5255C32.4614 21.2811 32.949 21.1588 33.5045 21.1588C34.1439 21.1588 34.625 21.3165 34.9512 21.6349C35.2774 21.9534 35.4388 22.4358 35.4388 23.0856V29.1039H37.3376V22.6449C37.3376 21.7153 37.0502 20.9691 36.4722 20.4062C35.8941 19.8432 35.103 19.5634 34.0954 19.5634H34.0922Z" fill="black"/>
<path d="M47.568 20.0106H45.8694V23.7355H42.4367V25.3824H45.8694V29.0847H47.568V25.3824H51.0007V23.7355H47.568V20.0106Z" fill="black"/>
</g>
<defs>
<clipPath id="clip0_1_2086">
<rect width="50.9916" height="29.2857" fill="white"/>
</clipPath>
</defs>
</svg>
